nColumns=19
nRows=32
DataType=double
version=3
OpenSimVersion=4.1
endheader
time	ground_force_1_vx	ground_force_1_vy	ground_force_1_vz	ground_force_1_px	ground_force_1_py	ground_force_1_pz	ground_force_1_mx	ground_force_1_my	ground_force_1_mz	ground_force_2_vx	ground_force_2_vy	ground_force_2_vz	ground_force_2_px	ground_force_2_py	ground_force_2_pz	ground_force_2_mx	ground_force_2_my	ground_force_2_mz
1.965	118.499	827.758	-41.2692	1.65646	0	-0.388007	0	-2.31236	0	-5.91289	7.0146	-3.6982	2.12236	0	-0.558482	0	1.57511e-08	0
1.97	122.37	815.579	-41.0958	1.65826	0	-0.389328	0	-2.06454	0	-10.834	18.9155	-13.4207	2.1225	0	-0.55778	0	8.79123e-08	0
1.975	125.529	800.083	-39.5296	1.66015	0	-0.390688	0	-1.79994	0	-0.924217	40.445	-22.8666	2.12233	0	-0.558053	0	5.76761e-06	0
1.98	128.592	781.358	-38.2363	1.66209	0	-0.391964	0	-1.632	0	14.4459	86.2272	-30.0589	2.12301	0	-0.558139	0	7.70634e-05	0
1.985	131.497	759.417	-37.0977	1.66403	0	-0.393037	0	-1.63476	0	9.28069	198.176	-36.9777	2.12359	0	-0.557953	0	0.000601661	0
1.99	133.653	734.157	-35.4324	1.666	0	-0.393819	0	-1.76799	0	-17.0829	328.863	-36.808	2.12402	0	-0.557746	0	0.00372835	0
1.995	135.427	705.757	-34.2453	1.66799	0	-0.394354	0	-1.9196	0	-29.8473	424.731	-42.3784	2.12468	0	-0.557674	0	0.0185784	0
2	137.071	673.066	-32.7789	1.67009	0	-0.3947	0	-1.98738	0	-49.8741	481.835	-41.6396	2.12539	0	-0.557645	0	0.0713849	0
2.005	137.863	635.081	-30.3484	1.67238	0	-0.394855	0	-1.94352	0	-66.6434	516.863	-37.7298	2.12637	0	-0.557759	0	0.205029	0
2.01	137.354	593.413	-27.766	1.67497	0	-0.394851	0	-1.81519	0	-81.2938	541.379	-33.1542	2.12782	0	-0.558163	0	0.448679	0
2.015	135.312	549.632	-24.558	1.67792	0	-0.394684	0	-1.63106	0	-92.9102	563.52	-26.6576	2.12982	0	-0.558891	0	0.755866	0
2.02	130.8	503.675	-20.8794	1.68131	0	-0.394235	0	-1.41533	0	-101.698	584.57	-18.7677	2.13211	0	-0.559807	0	1.01961	0
2.025	125.434	452.513	-16.89	1.6855	0	-0.393589	0	-1.13966	0	-107.678	608.686	-9.94663	2.13534	0	-0.561274	0	1.37574	0
2.03	119.246	391.096	-12.2712	1.69122	0	-0.392785	0	-0.796528	0	-113.949	646.964	-0.335279	2.14081	0	-0.564077	0	1.8926	0
2.035	107.333	318.034	-8.20201	1.69956	0	-0.3918	0	-0.421661	0	-120.491	689.663	10.5038	2.14762	0	-0.567619	0	2.22722	0
2.04	90.9452	242.143	-4.73556	1.7119	0	-0.390629	0	-0.0897752	0	-128.203	724.272	20.3114	2.15466	0	-0.57114	0	2.47159	0
2.045	79.6131	206.161	1.18459	1.71565	0	-0.392625	0	-0.0125619	0	-134.011	747.184	29.0655	2.16151	0	-0.574244	0	2.70313	0
2.05	72.6085	183.933	4.58816	1.71674	0	-0.393561	0	0.000680416	0	-138.173	763.543	36.3693	2.16866	0	-0.576934	0	2.89649	0
2.055	67.0194	174.239	6.83326	1.7173	0	-0.39345	0	0.00014697	0	-142.686	783.259	42.8761	2.17733	0	-0.579618	0	2.8614	0
2.06	56.0943	165.116	8.49798	1.71786	0	-0.393397	0	3.34173e-05	0	-144.533	798.193	47.9931	2.18664	0	-0.582071	0	2.57333	0
2.065	47.5038	153.083	7.95765	1.7186	0	-0.393396	0	2.92093e-06	0	-144.025	803.761	51.9296	2.1958	0	-0.584008	0	2.39012	0
2.07	37.5299	135.793	7.84018	1.71946	0	-0.393382	0	5.15076e-08	0	-143.137	806.54	56.1413	2.20438	0	-0.585176	0	2.29747	0
2.075	29.314	113.509	6.31199	1.72051	0	-0.393406	0	1.56275e-10	0	-140.988	810.574	59.6751	2.21181	0	-0.585604	0	2.37595	0
2.08	21.9553	89.1427	3.78482	1.72172	0	-0.393478	0	1.09246e-13	0	-138.328	817.371	63.5641	2.21814	0	-0.585559	0	2.56119	0
2.085	10.5911	62.3044	5.20347	1.7229	0	-0.393432	0	0	0	-136.308	827.616	66.3612	2.22362	0	-0.585196	0	2.79156	0
2.09	-5.30227	31.0289	8.78138	1.7239	0	-0.393229	0	0	0	-134.164	841.039	68.2171	2.22814	0	-0.584662	0	2.92451	0
2.095	-2.43421	3.1381	1.59629	1.72564	0	-0.393555	0	4.44089e-16	0	-131.865	856.82	69.254	2.23163	0	-0.584158	0	2.83112	0
2.1	0.0968865	-0.103776	-0.0446179	1.72959	0	-0.394757	0	1.38778e-17	0	-130.03	869.895	68.5893	2.23446	0	-0.583765	0	2.62733	0
2.105	0.0864495	-0.0844779	-0.0322649	1.73456	0	-0.395976	0	-6.93889e-18	0	-128.003	878.192	66.5681	2.23701	0	-0.583458	0	2.50959	0
2.11	-1.00964	0.905313	0.312527	1.74028	0	-0.397163	0	1.11022e-16	0	-125.454	884.412	64.1079	2.23935	0	-0.583219	0	2.40548	0
2.115	-0.161535	0.130308	0.0392375	1.74705	0	-0.398327	0	0	0	-122.752	889.18	61.3973	2.24143	0	-0.583049	0	2.25192	0
2.12	-0.00189628	0.00140178	0.000381588	1.75499	0	-0.399503	0	7.04731e-18	0	-119.733	891.049	58.8658	2.2433	0	-0.582951	0	2.1332	0
